<?xml version="1.0" encoding="UTF-8" standalone="no"?>
<!-- Created with Inkscape (http://www.inkscape.org/) -->

<svg
   xmlns:dc="http://purl.org/dc/elements/1.1/"
   xmlns:cc="http://creativecommons.org/ns#"
   xmlns:rdf="http://www.w3.org/1999/02/22-rdf-syntax-ns#"
   xmlns:svg="http://www.w3.org/2000/svg"
   xmlns="http://www.w3.org/2000/svg"
   xmlns:sodipodi="http://sodipodi.sourceforge.net/DTD/sodipodi-0.dtd"
   xmlns:inkscape="http://www.inkscape.org/namespaces/inkscape"
   id="svg2"
   version="1.1"
   inkscape:version="0.91 r13725"
   xml:space="preserve"
   width="608.75"
   height="153.75"
   viewBox="0 0 608.75 153.75"
   sodipodi:docname="madlab-text-logo.svg"><metadata
     id="metadata8"><rdf:RDF><cc:Work
         rdf:about=""><dc:format>image/svg+xml</dc:format><dc:type
           rdf:resource="http://purl.org/dc/dcmitype/StillImage" /><dc:title></dc:title></cc:Work></rdf:RDF></metadata><defs
     id="defs6" /><sodipodi:namedview
     pagecolor="#ffffff"
     bordercolor="#666666"
     borderopacity="1"
     objecttolerance="10"
     gridtolerance="10"
     guidetolerance="10"
     inkscape:pageopacity="0"
     inkscape:pageshadow="2"
     inkscape:window-width="1881"
     inkscape:window-height="1056"
     id="namedview4"
     showgrid="false"
     inkscape:zoom="5.0201232"
     inkscape:cx="294.18093"
     inkscape:cy="-317.26835"
     inkscape:window-x="39"
     inkscape:window-y="24"
     inkscape:window-maximized="1"
     inkscape:current-layer="g10" /><g
     id="g10"
     inkscape:groupmode="layer"
     inkscape:label="ink_ext_XXXXXX"
     transform="matrix(1.25,0,0,-1.25,0,153.75)"><g
       id="g12"
       transform="scale(0.1,0.1)"><path
         d="m 1991.5,102.34 -17.19,1.64 c -21.66,1.852 -50.15,3.7 -79.11,5.36 -58.2,3.328 -118.29,5.898 -129.14,6.144 l -76.81,1.739 -4.93,16.488 L 1428.04,78.6484 1106.83,9.64453 1124.2,86.1719 876.082,121.711 865.918,102.477 634.887,128.695 634.16,64.8867 8.68359,128.695 197.75,1170.67 l 516.781,-29.85 80.977,-149.8 65.418,91.57 467.244,63.59 15.44,-93.87 38.79,170.81 538.63,-89.96 27.56,-76.34 27.41,9.36 c 72.23,24.68 143.48,47.19 219.26,60.37 60.17,11.05 118.69,16.49 175.47,16.49 87.54,0 171.86,-13.26 248.9,-44.13 l 0.48,7.45 661.12,57.18 -45.44,-459.122 117.8,518.702 538.62,-89.96 34.63,-95.94 c 68.27,36.69 130.41,64.52 217.14,84.75 73.71,17.67 145.89,26.32 216.82,26.32 94.15,0 186.86,-15.76 267.73,-59.98 107.36,-57.85 161.36,-160.685 161.36,-277.337 0,-24.797 -2.5,-50.465 -8.5,-76.168 64.41,-64.098 86.62,-147.973 86.62,-224.379 0,-307.426 -339.83,-441.5901 -548.42,-441.5901 -57.91,0 -114.34,5.1758 -166.24,18.4258 -22.65,5.5625 -44.53,12.9883 -65.67,21.7693 l -8.56,-0.07 -46.34,0.594 c -37.67,0.597 -87.35,1.55 -136.86,2.558 -98.9,2.016 -235.48,5.11 -235.48,5.11 L 3655.5,133.715 3078.02,9.64063 3091.48,68.9648 2643.82,49.1016 2640.24,174.273 C 2518.91,94.6133 2382.88,53.9414 2235.94,53.9414 c -41.59,0 -80.44,4.5664 -118.85,11.7734 -29.08,5.4571 -57.92,12.4415 -87.64,19.9727 l -28.76,7.2852 -9.19,9.3673"
         style="fill:#231f20;fill-opacity:1;fill-rule:nonzero;stroke:none"
         id="path14"
         inkscape:connector-curvature="0" /><path
         d="M 1720.93,195.625 1416.94,130.309 1176.69,78.6953 1188.42,130.355 903.082,171.223 895.52,271.555 836.051,159.043 602.148,185.59 583.125,223.445 581.984,123.324 70.8711,175.461 241.391,1115.22 682.063,1089.77 789.289,891.418 890.66,1033.31 l 393.72,53.58 50.93,-309.706 87.57,385.606 458.95,-76.65 81.56,-225.972 -8.31,143.032 38,12.98 c 69.61,23.78 138.21,45.61 211.24,58.31 57.05,10.5 112.58,15.71 166.41,15.71 109.97,0 211.07,-22.25 296.63,-73.76 l 2.6,41.2 552.42,47.77 -52.11,-526.469 92.12,4.004 131.68,579.845 458.94,-76.65 46.91,-129.976 -1.51,5.266 37.05,20.34 c 72.92,40.03 133.39,68.42 220.68,88.78 69.52,16.67 137.75,24.9 204.66,24.9 88.66,0 171.92,-14.98 242.52,-53.58 88.7,-47.788 133.73,-131.835 133.73,-230.897 0,-31.149 -4.6,-62.961 -15.91,-93.547 69.42,-53.262 94.03,-131.477 94.03,-207 0,-260.039 -293.79,-388.75 -495.58,-388.75 -54.99,0 -106.77,4.937 -153.16,16.785 -23.66,5.773 -46.35,13.883 -68.17,23.516 -5.74,-1.692 -398.22,7.203 -398.22,7.203 l -7.92,26.445 -544.24,-116.9297 10.47,46.1287 -463.25,-20.558 -4.99,174.406 c -11.82,-10.625 -24.24,-20.891 -37.24,-30.785 -123.16,-93.555 -263.37,-141.106 -416.93,-141.106 -38.18,0 -73.84,4.25 -109.1,10.867 -28.02,5.258 -55.79,12.008 -84.42,19.262 l -14.38,3.641 -10.38,10.594 c -6.67,6.8 -228.38,16.664 -250.4,17.164 l -38.41,0.871 -7.92,26.445"
         style="fill:#ffffff;fill-opacity:1;fill-rule:nonzero;stroke:none"
         id="path16"
         inkscape:connector-curvature="0" /><path
         d="m 1246.56,147.75 6.08,26.785 -300.058,42.973 -18.144,240.754 -128.254,-242.653 -169.661,19.258 -103.757,206.504 -2.957,-259.613 -396.75,40.472 151.972,837.54 364.563,-21.05 133.472,-246.907 137.325,192.222 320.189,43.565 63.92,-388.651 53.24,-1.605 105.62,465.106 379.26,-63.34 131.18,-363.411 52.61,10.789 -16.25,279.688 c 66.97,22.883 132.95,44.034 203.21,56.264 53.94,9.95 106.47,14.92 157.36,14.92 118.78,0 221.67,-27.66 303.14,-88.962 l 40.21,-30.261 5.75,90.773 443.71,38.38 -51.85,-523.778 193.29,8.394 129.57,570.544 379.26,-63.34 141.71,-392.579 52.64,10.199 -4.76,131.192 -42.52,147.527 c 70.73,38.821 126.48,64.801 207.26,83.641 65.44,15.71 129.69,23.52 192.66,23.52 83.14,0 156.97,-14.18 217.32,-47.18 70.09,-37.766 106.1,-103.075 106.1,-184.457 0,-31.711 -5.72,-62.59 -19.18,-90.668 l -9.8,-20.446 35.68,-25.777 c 51.11,-39.254 71.42,-98.84 71.42,-163.656 0,-213.09 -248.43,-335.91 -442.75,-335.91 -52.07,0 -99.21,4.699 -140.09,15.14 -20.9,5.063 -40.95,12.274 -60.21,20.793 l -4.95,2.192 -374.7,8.492 -57.59,192.336 -29.8,-172.364 -434.5,-93.355 7.47,32.934 -478.83,-21.25 -7.12,248.953 -45.47,-51.246 c -21.22,-23.914 -45.53,-46.344 -72.91,-67.196 -114.07,-86.644 -243.05,-130.324 -384.95,-130.324 -34.78,0 -67.24,3.934 -99.36,9.961 -26.95,5.055 -53.65,11.574 -81.19,18.547 -26.56,27.105 -286.94,33.004 -286.94,33.004 l -57.59,192.336 -29.8,-172.364 -275.22,-59.136 -159.28,-34.219"
         style="fill:#fab40a;fill-opacity:1;fill-rule:nonzero;stroke:none"
         id="path18"
         inkscape:connector-curvature="0" /><path
         d="M 209.996,256.043 338.754,965.668 611.703,949.91 776.508,645.023 956.77,897.348 l 231.74,31.535 118.45,-720.137 -293.55,42.043 -30.894,410.008 -211.157,-399.5 -92.703,10.519 -206.008,410.012 -5.144,-452.055 -257.508,26.27"
         style="fill:#ed192d;fill-opacity:1;fill-rule:nonzero;stroke:none"
         id="path20"
         inkscape:connector-curvature="0" /><path
         d="m 1332.71,208.746 180.25,793.724 283.25,-47.306 252.37,-699.121 -231.76,5.254 -56.66,189.234 -103,0 -30.89,-178.715 -293.56,-63.07 z m 422.3,346.914 -102.99,262.828 -51.5,-257.562 154.49,-5.266"
         style="fill:#ed192d;fill-opacity:1;fill-rule:evenodd;stroke:none"
         id="path22"
         inkscape:connector-curvature="0" /><path
         d="m 2117.23,215.75 -39.47,678.961 c 47.49,16.352 96.42,28.918 146.77,37.672 50.36,9.344 99.29,14.023 146.78,14.023 109.3,0 197.71,-25.414 265.24,-76.222 68.09,-50.813 102.13,-132.586 102.13,-245.305 0,-125.578 -51.79,-227.793 -155.36,-306.637 -103,-78.242 -218.59,-117.383 -346.77,-117.383 -40.63,0 -80.4,4.973 -119.32,14.891 z m 185.41,248.805 c 48.65,14.597 88.7,36.215 120.17,64.824 31.47,28.621 47.22,63.672 47.22,105.137 0,58.406 -15.46,97.828 -46.36,118.269 -30.9,21.028 -71.24,31.535 -121.03,31.535 l 0,-319.765"
         style="fill:#ed192d;fill-opacity:1;fill-rule:evenodd;stroke:none"
         id="path24"
         inkscape:connector-curvature="0" /><path
         d="m 2788.46,923.629 303.86,26.281 -51.51,-520.406 242.07,10.523 0,-215.507 -473.82,-21.028 -20.6,720.137"
         style="fill:#ed192d;fill-opacity:1;fill-rule:nonzero;stroke:none"
         id="path26"
         inkscape:connector-curvature="0" /><path
         d="m 3303.46,208.746 180.25,793.724 283.25,-47.306 252.36,-699.121 -231.75,5.254 -56.66,189.234 -103,0 -30.89,-178.715 -293.56,-63.07 z m 422.3,346.914 -102.99,262.828 -51.5,-257.562 154.49,-5.266"
         style="fill:#ed192d;fill-opacity:1;fill-rule:evenodd;stroke:none"
         id="path28"
         inkscape:connector-curvature="0" /><path
         d="m 4085.41,277.07 -18.02,496.743 -30.04,104.257 c 36.62,20.438 84.97,37.668 145.05,51.68 60.67,14.609 120.17,21.91 178.55,21.91 76.67,0 139.05,-13.14 187.12,-39.422 48.06,-25.707 72.1,-67.761 72.1,-126.168 0,-27.445 -5.72,-50.812 -17.17,-70.074 -11.45,-19.277 -29.76,-42.937 -54.93,-70.973 38.91,-8.753 73.52,-24.824 103.86,-48.175 30.89,-23.368 46.34,-60.453 46.34,-111.262 0,-81.773 -42.35,-147.184 -127.04,-196.246 -84.68,-49.059 -168.52,-73.59 -251.49,-73.59 -48.64,0 -90.12,4.387 -124.46,13.156 -34.33,8.168 -70.95,24.223 -109.87,48.164 z m 240.34,116.516 c 30.32,0 60.95,9.344 91.84,28.031 31.47,18.703 47.22,40.895 47.22,66.586 0,4.09 -0.87,9.934 -2.58,17.527 -1.14,8.18 -8.02,15.481 -20.6,21.895 -12.59,7.02 -27.47,10.523 -44.64,10.523 -17.16,0 -34.04,-2.636 -50.63,-7.886 -16.6,-5.254 -29.47,-11.981 -38.63,-20.149 l 18.02,-116.527 z m -30.04,233.043 c 32.05,0 63.23,10.508 93.56,31.535 30.32,21.617 45.49,46.149 45.49,73.594 0,5.25 -1.14,13.14 -3.43,23.66 -1.71,10.508 -11.16,21.309 -28.33,32.418 -17.17,11.094 -36.91,16.641 -59.23,16.641 -13.72,0 -26.03,-2.043 -36.9,-6.133 -10.87,-3.504 -20.6,-9.641 -29.19,-18.395 l 18.03,-153.32"
         style="fill:#ed192d;fill-opacity:1;fill-rule:evenodd;stroke:none"
         id="path30"
         inkscape:connector-curvature="0" /><path
         d="M 209.996,256.043 338.754,965.668 611.703,949.91 776.508,645.023 956.77,897.348 l 231.74,31.535 118.45,-720.137 -293.55,42.043 -30.894,410.008 -211.157,-399.5 -92.703,10.519 -206.008,410.012 -5.144,-452.055 -257.508,26.27"
         style="fill:#ed1c24;fill-opacity:1;fill-rule:nonzero;stroke:none"
         id="path32"
         inkscape:connector-curvature="0" /><path
         d="m 1332.71,208.746 180.25,793.724 283.25,-47.306 252.37,-699.121 -231.76,5.254 -56.66,189.234 -103,0 -30.89,-178.715 -293.56,-63.07 z m 422.3,346.914 -102.99,262.828 -51.5,-257.562 154.49,-5.266"
         style="fill:#ed1c24;fill-opacity:1;fill-rule:evenodd;stroke:none"
         id="path34"
         inkscape:connector-curvature="0" /><path
         d="m 2117.23,215.75 -39.47,678.961 c 47.49,16.352 96.42,28.918 146.77,37.672 50.36,9.344 99.29,14.023 146.78,14.023 109.3,0 197.71,-25.414 265.24,-76.222 68.09,-50.813 102.13,-132.586 102.13,-245.305 0,-125.578 -51.79,-227.793 -155.36,-306.637 -103,-78.242 -218.59,-117.383 -346.77,-117.383 -40.63,0 -80.4,4.973 -119.32,14.891 z m 185.41,248.805 c 48.65,14.597 88.7,36.215 120.17,64.824 31.47,28.621 47.22,63.672 47.22,105.137 0,58.406 -15.46,97.828 -46.36,118.269 -30.9,21.028 -71.24,31.535 -121.03,31.535 l 0,-319.765"
         style="fill:#ed1c24;fill-opacity:1;fill-rule:evenodd;stroke:none"
         id="path36"
         inkscape:connector-curvature="0" /><path
         d="m 2788.46,923.629 303.86,26.281 -51.51,-520.406 242.07,10.523 0,-215.507 -473.82,-21.028 -20.6,720.137"
         style="fill:#ed1c24;fill-opacity:1;fill-rule:nonzero;stroke:none"
         id="path38"
         inkscape:connector-curvature="0" /><path
         d="m 3303.46,208.746 180.25,793.724 283.25,-47.306 252.36,-699.121 -231.75,5.254 -56.66,189.234 -103,0 -30.89,-178.715 -293.56,-63.07 z m 422.3,346.914 -102.99,262.828 -51.5,-257.562 154.49,-5.266"
         style="fill:#ed1c24;fill-opacity:1;fill-rule:evenodd;stroke:none"
         id="path40"
         inkscape:connector-curvature="0" /><path
         d="m 4085.41,277.07 -18.02,496.743 -30.04,104.257 c 36.62,20.438 84.97,37.668 145.05,51.68 60.67,14.609 120.17,21.91 178.55,21.91 76.67,0 139.05,-13.14 187.12,-39.422 48.06,-25.707 72.1,-67.761 72.1,-126.168 0,-27.445 -5.72,-50.812 -17.17,-70.074 -11.45,-19.277 -29.76,-42.937 -54.93,-70.973 38.91,-8.753 73.52,-24.824 103.86,-48.175 30.89,-23.368 46.34,-60.453 46.34,-111.262 0,-81.773 -42.35,-147.184 -127.04,-196.246 -84.68,-49.059 -168.52,-73.59 -251.49,-73.59 -48.64,0 -90.12,4.387 -124.46,13.156 -34.33,8.168 -70.95,24.223 -109.87,48.164 z m 240.34,116.516 c 30.32,0 60.95,9.344 91.84,28.031 31.47,18.703 47.22,40.895 47.22,66.586 0,4.09 -0.87,9.934 -2.58,17.527 -1.14,8.18 -8.02,15.481 -20.6,21.895 -12.59,7.02 -27.47,10.523 -44.64,10.523 -17.16,0 -34.04,-2.636 -50.63,-7.886 -16.6,-5.254 -29.47,-11.981 -38.63,-20.149 l 18.02,-116.527 z m -30.04,233.043 c 32.05,0 63.23,10.508 93.56,31.535 30.32,21.617 45.49,46.149 45.49,73.594 0,5.25 -1.14,13.14 -3.43,23.66 -1.71,10.508 -11.16,21.309 -28.33,32.418 -17.17,11.094 -36.91,16.641 -59.23,16.641 -13.72,0 -26.03,-2.043 -36.9,-6.133 -10.87,-3.504 -20.6,-9.641 -29.19,-18.395 l 18.03,-153.32"
         style="fill:#ed1c24;fill-opacity:1;fill-rule:evenodd;stroke:none"
         id="path42"
         inkscape:connector-curvature="0" /></g><path
       inkscape:connector-curvature="0"
       id="path4270"
       d="m 138.24062,-21.6875 -3.87968,-17.08125 -1.54376,9.3875 -46.724996,-6.35937 -6.540622,-9.15782 -8.098437,14.97969 -51.678125,2.98593 -18.90625,-104.19843 62.546875,-6.37969 0.07344,6.37969 23.103122,-2.62031 1.015632,1.92343 24.812491,-3.55469 -1.73749,-7.65312 32.12187,6.9 25.62656,5.50781 0.49375,-1.65 7.68125,-0.17343 c 1.085,-0.0246 7.09406,-0.28126 12.91406,-0.61406 2.896,-0.166 5.74494,-0.35074 7.91094,-0.53594 l 1.71875,-0.16406 0.91875,-0.93751 2.87656,-0.72812 c 2.972,-0.75312 5.85607,-1.45117 8.76407,-1.99688 3.841,-0.72069 7.72537,-1.17812 11.88437,-1.17812 14.694,0 28.29669,4.06684 40.42969,12.03281 l 0.35781,-12.51562 44.76719,1.98593 -1.34688,-5.93281 57.74844,12.40781 0.49375,-1.65 c 0,0 13.65843,-0.30933 23.54843,-0.51093 4.951,-0.1008 9.91895,-0.19499 13.68595,-0.25469 l 4.63437,-0.0594 0.85625,0.006 c 2.114,-0.87811 4.30063,-1.62031 6.56563,-2.17657 5.19,-1.325 10.834,-1.84374 16.625,-1.84374 20.859,0 54.84218,13.41676 54.84218,44.15936 0,7.6406 -2.2215,16.02927 -8.6625,22.43907 0.6,2.5703 0.85,5.13593 0.85,7.61562 0,11.6652 -5.39993,21.94938 -16.13593,27.73438 -8.087,4.422 -17.35844,5.99844 -26.77344,5.99844 -7.093,0 -14.31025,-0.86582 -21.68125,-2.63282 -8.673,-2.023 -14.88706,-4.806 -21.71406,-8.475 l -3.46407,9.59375 -53.86093,8.99688 -11.77969,-51.87032 4.54375,45.91251 -66.1125,-5.71875 -0.0484,-0.74532 c -7.704,3.087 -16.13506,4.41407 -24.88906,4.41407 -5.678,0 -11.52988,-0.545 -17.54688,-1.65 -7.578,-1.318 -14.70356,-3.56794 -21.92656,-6.03594 l -2.74062,-0.9375 -2.75625,7.63437 -53.86251,8.99688 z"
       style="fill:#231f20;fill-opacity:1;fill-rule:nonzero;stroke:none" /><path
       style="fill:#ff00ff;fill-opacity:1;fill-rule:nonzero;stroke:none"
       d="m 138.24062,-21.6875 -3.87968,-17.08125 -1.54376,9.3875 -46.724996,-6.35937 -6.540622,-9.15782 -8.098437,14.97969 -51.678125,2.98593 -18.90625,-104.19843 62.546875,-6.37969 0.07344,6.37969 23.103122,-2.62031 1.015632,1.92343 24.812491,-3.55469 -1.73749,-7.65312 32.12187,6.9 25.62656,5.50781 0.49375,-1.65 7.68125,-0.17343 c 1.085,-0.0246 7.09406,-0.28126 12.91406,-0.61406 2.896,-0.166 5.74494,-0.35074 7.91094,-0.53594 l 1.71875,-0.16406 0.91875,-0.93751 2.87656,-0.72812 c 2.972,-0.75312 5.85607,-1.45117 8.76407,-1.99688 3.841,-0.72069 7.72537,-1.17812 11.88437,-1.17812 14.694,0 28.29669,4.06684 40.42969,12.03281 l 0.35781,-12.51562 44.76719,1.98593 -1.34688,-5.93281 57.74844,12.40781 0.49375,-1.65 c 0,0 13.65843,-0.30933 23.54843,-0.51093 4.951,-0.1008 9.91895,-0.19499 13.68595,-0.25469 l 4.63437,-0.0594 0.85625,0.006 c 2.114,-0.87811 4.30063,-1.62031 6.56563,-2.17657 5.19,-1.325 10.834,-1.84374 16.625,-1.84374 20.859,0 54.84218,13.41676 54.84218,44.15936 0,7.6406 -2.2215,16.02927 -8.6625,22.43907 0.6,2.5703 0.85,5.13593 0.85,7.61562 0,11.6652 -5.39993,21.94938 -16.13593,27.73438 -8.087,4.422 -17.35844,5.99844 -26.77344,5.99844 -7.093,0 -14.31025,-0.86582 -21.68125,-2.63282 -8.673,-2.023 -14.88706,-4.806 -21.71406,-8.475 l -3.46407,9.59375 -53.86093,8.99688 -11.77969,-51.87032 4.54375,45.91251 -66.1125,-5.71875 -0.0484,-0.74532 c -7.704,3.087 -16.13506,4.41407 -24.88906,4.41407 -5.678,0 -11.52988,-0.545 -17.54688,-1.65 -7.578,-1.318 -14.70356,-3.56794 -21.92656,-6.03594 l -2.74062,-0.9375 -2.75625,7.63437 -53.86251,8.99688 z m 4.04688,-6.03281 45.89532,-7.66563 8.15624,-22.59688 -0.83124,14.30313 3.8,1.29844 c 6.961,2.378 13.82043,4.55969 21.12343,5.82969 5.705,1.05 11.25919,1.57187 16.64219,1.57187 10.997,0 21.1065,-2.22556 29.6625,-7.37656 l 0.25937,4.12031 55.24219,4.77656 -5.21094,-52.64687 9.2125,0.4 13.16719,57.98594 45.89531,-7.66563 4.69062,-12.99844 -0.15156,0.52813 3.70469,2.03281 c 7.292,4.003 13.33975,6.84213 22.06875,8.87813 6.952,1.667 13.77463,2.49062 20.46563,2.49062 8.866,0 17.19156,-1.49781 24.25156,-5.35781 8.87,-4.7788 13.37344,-13.18443 13.37344,-23.09063 0,-3.11489 -0.45963,-6.29609 -1.59063,-9.35469 6.942,-5.3262 9.40312,-13.14768 9.40312,-20.7 0,-26.00388 -29.3788,-38.875 -49.5578,-38.875 -5.499,0 -10.67663,0.49489 -15.31563,1.67969 -2.366,0.57731 -4.63519,1.38827 -6.81719,2.35157 -0.574,-0.1692 -39.82187,0.72031 -39.82187,0.72031 l -0.79219,2.64375 -54.425,-11.69375 1.04688,4.61407 -46.325,-2.05626 -0.49844,17.44062 c -1.182,-1.06248 -2.42344,-2.08872 -3.72344,-3.07812 -12.316,-9.3555 -26.33775,-14.11093 -41.69375,-14.11093 -3.818,0 -7.38337,0.42423 -10.90937,1.08593 -2.802,0.5258 -5.5792,1.20116 -8.4422,1.92656 l -1.43749,0.36407 -1.03907,1.05937 c -0.667,0.68 -22.83706,1.66719 -25.03906,1.71719 l -3.84218,0.0875 -0.79063,2.64375 -30.4,-6.53125 -24.025,-5.1625 1.17343,5.16719 -28.534364,4.08593 -0.756256,10.03438 -5.946872,-11.25156 -23.390626,2.65469 -1.901562,3.78437 -0.114062,-10.01093 -51.110938,5.21405 17.051562,93.975 44.067188,-2.54531 10.721875,-19.83438 10.137499,14.18907 39.371876,5.35781 5.09375,-30.97031 8.75625,38.56094 z"
       id="path4266"
       inkscape:connector-curvature="0" /><path
       style="fill:#00ff00;fill-opacity:1;fill-rule:nonzero;stroke:none"
       d="m 142.2875,-27.72031 45.89532,-7.66563 8.15624,-22.59688 -0.83124,14.30313 3.8,1.29844 c 6.961,2.378 13.82043,4.55969 21.12343,5.82969 5.705,1.05 11.25919,1.57187 16.64219,1.57187 10.997,0 21.1065,-2.22556 29.6625,-7.37656 l 0.25937,4.12031 55.24219,4.77656 -5.21094,-52.64687 9.2125,0.4 13.16719,57.98594 45.89531,-7.66563 4.69062,-12.99844 -0.15156,0.52813 3.70469,2.03281 c 7.292,4.003 13.33975,6.84213 22.06875,8.87813 6.952,1.667 13.77463,2.49062 20.46563,2.49062 8.866,0 17.19156,-1.49781 24.25156,-5.35781 8.87,-4.7788 13.37344,-13.18443 13.37344,-23.09063 0,-3.11489 -0.45963,-6.29609 -1.59063,-9.35469 6.942,-5.3262 9.40312,-13.14769 9.40312,-20.7 0,-26.00389 -29.3788,-38.875 -49.5578,-38.875 -5.499,0 -10.67663,0.49489 -15.31563,1.67969 -2.366,0.57731 -4.63519,1.38827 -6.81719,2.35157 -0.574,-0.1692 -39.82187,0.72031 -39.82187,0.72031 l -0.79219,2.64375 -54.425,-11.69375 1.04688,4.61407 -46.325,-2.05626 -0.49844,17.44062 c -1.182,-1.06249 -2.42344,-2.08872 -3.72344,-3.07812 -12.316,-9.3555 -26.33775,-14.11093 -41.69375,-14.11093 -3.818,0 -7.38337,0.42423 -10.90937,1.08593 -2.802,0.5258 -5.5792,1.20116 -8.4422,1.92656 l -1.43749,0.36407 -1.03907,1.05937 c -0.667,0.68 -22.83706,1.66719 -25.03906,1.71719 l -3.84218,0.0875 -0.79063,2.64375 -30.4,-6.53125 -24.025,-5.1625 1.17343,5.16719 -28.534364,4.08593 -0.756256,10.03438 -5.946872,-11.25156 -23.390626,2.65469 -1.901562,3.78437 -0.114062,-10.01093 -51.110938,5.21405 17.051562,93.975 44.067188,-2.54531 10.721875,-19.83438 10.137499,14.18907 39.371876,5.35781 5.09375,-30.97031 8.75625,38.56094 z"
       id="path4191"
       inkscape:connector-curvature="0" /><path
       d="m 124.656,-129.225 0.608,2.6785 -30.0058,4.2973 -1.8144,24.0754 -12.8254,-24.2653 -16.9661,1.9258 -10.3757,20.6504 -0.2957,-25.9613 -39.675,4.0472 15.1972,83.754 36.4563,-2.105 13.3472,-24.6907 13.7325,19.2222 32.0189,4.3565 6.392,-38.8651 5.324,-0.1605 10.562,46.5106 37.926,-6.334 13.118,-36.3411 5.261,1.0789 -1.625,27.9688 c 6.697,2.2883 13.295,4.4034 20.321,5.6264 5.394,0.995 10.647,1.492 15.736,1.492 11.878,0 22.167,-2.766 30.314,-8.8962 l 4.021,-3.0261 0.575,9.0773 44.371,3.838 -5.185,-52.3778 19.329,0.8394 12.957,57.0544 37.926,-6.334 14.171,-39.2579 5.264,1.0199 -0.476,13.1192 -4.252,14.7527 c 7.073,3.8821 12.648,6.4801 20.726,8.3641 6.544,1.571 12.969,2.352 19.266,2.352 8.314,0 15.697,-1.418 21.732,-4.718 7.009,-3.7766 10.61,-10.3075 10.61,-18.4457 0,-3.1711 -0.572,-6.259 -1.918,-9.0668 l -0.98,-2.0446 3.568,-2.5777 c 5.111,-3.9254 7.142,-9.884 7.142,-16.3656 0,-21.309 -24.843,-33.591 -44.275,-33.591 -5.207,0 -9.921,0.4699 -14.009,1.514 -2.09,0.5063 -4.095,1.2274 -6.021,2.0793 l -0.495,0.2192 -37.47,0.8492 -5.759,19.2336 -2.98,-17.2364 -43.45,-9.3355 0.747,3.2934 -47.883,-2.125 -0.712,24.8953 -4.547,-5.1246 c -2.122,-2.3914 -4.553,-4.6344 -7.291,-6.7196 -11.407,-8.6644 -24.305,-13.0324 -38.495,-13.0324 -3.478,0 -6.724,0.3934 -9.936,0.9961 -2.695,0.5055 -5.365,1.1574 -8.119,1.8547 -2.656,2.7105 -28.694,3.3004 -28.694,3.3004 l -5.759,19.2336 -2.98,-17.2364 -27.522,-5.9136 -15.928,-3.4219"
       style="fill:#fab40a;fill-opacity:1;fill-rule:nonzero;stroke:none"
       id="path4195"
       inkscape:connector-curvature="0" /><path
       style="fill:#ed1c24;fill-opacity:1;fill-rule:nonzero;stroke:none"
       d="m 151.29531,-43.75313 -18.025,-79.37187 29.35625,6.30625 3.08906,17.87188 10.3,0 5.66563,-18.92344 23.17657,-0.525 -25.23751,69.91093 -28.325,4.73125 z m 197.075,0 -18.025,-79.37187 29.35625,6.30625 3.08906,17.87188 10.3,0 5.66563,-18.92344 23.175,-0.525 -25.23594,69.91093 -28.325,4.73125 z M 33.875,-47.43282 21,-118.39531 l 25.75,-2.62813 0.514062,45.20626 20.601563,-41.00157 9.270313,-1.05156 21.115622,39.95 3.08906,-41.00156 29.35469,-4.20313 -11.84375,72.01406 -23.175,-3.15468 L 77.651562,-79.49844 61.170313,-49.00938 33.875,-47.43282 Z m 402.22031,-1.40156 c -5.838,0 -11.78769,-0.72972 -17.85469,-2.19062 -6.008,-1.4012 -10.84424,-3.12495 -14.50624,-5.16875 l 3.00468,-10.425 1.80156,-49.675 c 3.892,-2.3941 7.55451,-3.99883 10.98751,-4.81563 3.434,-0.87689 7.58131,-1.31562 12.44531,-1.31562 8.297,0 16.682,2.45347 25.15,7.35938 8.469,4.9062 12.70312,11.44769 12.70312,19.625 0,5.08089 -1.54381,8.7882 -4.63281,11.125 -3.034,2.33509 -6.4965,3.94188 -10.3875,4.81718 2.517,2.8036 4.34875,5.17074 5.49375,7.09844 1.145,1.9262 1.71718,4.26175 1.71718,7.00625 0,5.8407 -2.40493,10.04649 -7.21093,12.61719 -4.807,2.6282 -11.04394,3.94218 -18.71094,3.94218 z m -126.86406,-0.175 -30.38594,-2.62812 2.06094,-72.01406 47.38125,2.10312 0,21.55157 -24.20625,-1.05313 5.15,52.04062 z m -72.1,-0.35 c -4.749,0 -9.64212,-0.46716 -14.67812,-1.40156 -5.035,-0.8754 -9.92757,-2.13199 -14.67657,-3.76719 l 3.94688,-67.89687 c 3.892,-0.9918 7.86825,-1.48906 11.93125,-1.48906 12.818,0 24.37656,3.9133 34.67656,11.7375 10.357,7.8844 15.5375,18.10626 15.5375,30.66406 0,11.2719 -3.40506,19.44995 -10.21406,24.53125 -6.753,5.0808 -15.59344,7.62187 -26.52344,7.62187 z m -71.92969,-12.79218 10.3,-26.28282 -15.45,0.52656 5.15,25.75626 z m 197.075,0 10.3,-26.28282 -15.45,0.52656 5.15,25.75626 z m 72.1,-1.4 c 2.232,0 4.20644,-0.55466 5.92344,-1.66406 1.717,-1.11091 2.66182,-2.1914 2.83282,-3.2422 0.229,-1.052 0.34374,-1.84062 0.34374,-2.36562 0,-2.7445 -1.518,-5.19923 -4.55,-7.36094 -3.033,-2.10269 -6.15125,-3.15312 -9.35625,-3.15312 l -1.80156,15.33281 c 0.859,0.8754 1.83175,1.48867 2.91875,1.83907 1.087,0.409 2.31706,0.61406 3.68906,0.61406 z m -204.1125,-2.01719 c 4.979,0 9.01312,-1.05032 12.10312,-3.15312 3.09,-2.04411 4.63595,-5.98597 4.63595,-11.82657 0,-4.1465 -1.57488,-7.65196 -4.72188,-10.51406 -3.147,-2.8609 -7.15219,-5.02155 -12.01719,-6.48125 l 0,31.975 z m 209.43438,-24.61719 c 1.717,0 3.20506,-0.34956 4.46406,-1.05156 1.258,-0.6414 1.94694,-1.37106 2.06094,-2.18906 0.171,-0.7593 0.25781,-1.34413 0.25781,-1.75313 0,-2.56909 -1.57487,-4.78907 -4.72187,-6.65937 -3.089,-1.8687 -6.15238,-2.80156 -9.18438,-2.80156 l -1.80156,11.65156 c 0.916,0.8168 2.2025,1.49022 3.8625,2.01562 1.659,0.525 3.3465,0.7875 5.0625,0.7875 z"
       id="path4209"
       inkscape:connector-curvature="0" /><path
       inkscape:connector-curvature="0"
       id="path4270-3"
       d="m 202.82301,-203.15833 -0.37035,-1.63058 -0.14738,0.89614 -4.46038,-0.60707 -0.62438,-0.87421 -0.77308,1.42997 -4.93322,0.28503 -1.8048,-9.94683 5.97076,-0.60901 0.007,0.60901 2.20544,-0.25013 0.0969,0.1836 2.36861,-0.33933 -0.16585,-0.73057 3.06637,0.65868 2.44632,0.52577 0.0471,-0.15752 0.73325,-0.0164 c 0.10358,-0.002 0.67721,-0.0269 1.23279,-0.0586 0.27646,-0.0159 0.54841,-0.0335 0.75518,-0.0512 l 0.16407,-0.0156 0.0877,-0.0895 0.27459,-0.0695 c 0.28371,-0.0719 0.55902,-0.13853 0.83662,-0.19063 0.36667,-0.0688 0.73747,-0.11245 1.13449,-0.11245 1.40269,0 2.70121,0.38822 3.85944,1.14865 l 0.0342,-1.19475 4.27349,0.18958 -0.12857,-0.56634 5.51269,1.18445 0.0471,-0.15752 c 0,0 1.30384,-0.0295 2.24794,-0.0487 0.47263,-0.01 0.94687,-0.0187 1.30647,-0.0244 l 0.4424,-0.006 0.0817,6.3e-4 c 0.2018,-0.0838 0.41054,-0.15469 0.62676,-0.20778 0.49544,-0.12648 1.03422,-0.17601 1.58703,-0.17601 1.99121,0 5.23526,1.28077 5.23526,4.21548 0,0.72937 -0.21206,1.53016 -0.82692,2.14204 0.0573,0.24537 0.0812,0.49028 0.0812,0.72699 0,1.11357 -0.51548,2.0953 -1.54035,2.64754 -0.77199,0.42213 -1.65704,0.57261 -2.5558,0.57261 -0.67711,0 -1.36607,-0.0827 -2.06971,-0.25132 -0.82792,-0.19312 -1.42112,-0.45878 -2.07283,-0.80903 l -0.33069,0.9158 -5.14159,0.85913 -1.12449,-4.95156 0.43374,4.38283 -6.31113,-0.54592 -0.005,-0.0712 c -0.7354,0.29469 -1.54023,0.42137 -2.37589,0.42137 -0.54203,0 -1.10065,-0.052 -1.67504,-0.15752 -0.72339,-0.12583 -1.4036,-0.3406 -2.09312,-0.57619 l -0.2616,-0.0895 -0.26312,0.72877 -5.14174,0.85885 z"
       style="fill:#231f20;fill-opacity:1;fill-rule:nonzero;stroke:none;stroke-opacity:0.6"
       sodipodi:nodetypes="ccccccccccccccccccccccccscccccccccccsscscsccccccccscccccc" /><path
       style="fill:#ff00ff;fill-opacity:1;fill-rule:nonzero;stroke:none;stroke-opacity:0.6"
       d="m 202.82301,-219.15833 -0.37035,-1.63058 -0.14738,0.89614 -4.46038,-0.60707 -0.62438,-0.87421 -0.77308,1.42997 -4.93322,0.28503 -1.8048,-9.94683 5.97076,-0.60901 0.007,0.60901 2.20544,-0.25013 0.0969,0.1836 2.36861,-0.33933 -0.16585,-0.73057 3.06637,0.65868 2.44632,0.52577 0.0471,-0.15752 0.73325,-0.0164 c 0.10358,-0.002 0.67721,-0.0269 1.23279,-0.0586 0.27646,-0.0159 0.54841,-0.0335 0.75518,-0.0512 l 0.16407,-0.0156 0.0877,-0.0895 0.27459,-0.0695 c 0.28371,-0.0719 0.55902,-0.13853 0.83662,-0.19063 0.36667,-0.0688 0.73747,-0.11245 1.13449,-0.11245 1.40269,0 2.70121,0.38822 3.85944,1.14865 l 0.0342,-1.19475 4.27349,0.18958 -0.12857,-0.56634 5.51269,1.18445 0.0471,-0.15752 c 0,0 1.30384,-0.0295 2.24794,-0.0487 0.47263,-0.01 0.94687,-0.0187 1.30647,-0.0244 l 0.4424,-0.006 0.0817,6.3e-4 c 0.2018,-0.0838 0.41054,-0.15469 0.62676,-0.20778 0.49544,-0.12648 1.03422,-0.17601 1.58703,-0.17601 1.99121,0 5.23526,1.28077 5.23526,4.21548 0,0.72937 -0.21206,1.53016 -0.82692,2.14204 0.0573,0.24537 0.0812,0.49028 0.0812,0.72699 0,1.11357 -0.51548,2.0953 -1.54035,2.64754 -0.77199,0.42213 -1.65704,0.57261 -2.5558,0.57261 -0.67711,0 -1.36607,-0.0827 -2.06971,-0.25132 -0.82792,-0.19312 -1.42112,-0.45878 -2.07283,-0.80903 l -0.33069,0.9158 -5.14159,0.85913 -1.12449,-4.95156 0.43374,4.38283 -6.31113,-0.54592 -0.005,-0.0712 c -0.7354,0.29469 -1.54023,0.42137 -2.37589,0.42137 -0.54203,0 -1.10065,-0.052 -1.67504,-0.15752 -0.72339,-0.12583 -1.4036,-0.3406 -2.09312,-0.57619 l -0.2616,-0.0895 -0.26312,0.72877 -5.14174,0.85885 z m 0.38632,-0.57589 4.38119,-0.73177 0.7786,-2.1571 -0.0793,1.36538 0.36275,0.12396 c 0.6645,0.227 1.3193,0.43527 2.01645,0.55651 0.5446,0.10023 1.07481,0.15003 1.58867,0.15003 1.04978,0 2.01484,-0.21245 2.8316,-0.70417 l 0.0247,0.39333 5.27345,0.45597 -0.49744,-5.02569 0.87943,0.0382 1.25694,5.53537 4.38119,-0.73177 0.44777,-1.24084 -0.0145,0.0504 0.35365,0.19406 c 0.6961,0.38213 1.27342,0.65316 2.1067,0.84751 0.66364,0.15914 1.31493,0.23774 1.95365,0.23774 0.84636,0 1.64112,-0.14298 2.31507,-0.51145 0.84674,-0.45619 1.27664,-1.25859 1.27664,-2.20425 0,-0.29735 -0.0439,-0.60102 -0.15185,-0.893 0.66268,-0.50844 0.89762,-1.25508 0.89762,-1.97603 0,-2.48234 -2.80451,-3.71103 -4.73081,-3.71103 -0.52494,0 -1.0192,0.0473 -1.46204,0.16036 -0.22586,0.0551 -0.44247,0.13252 -0.65076,0.22447 -0.0548,-0.0162 -3.80142,0.0688 -3.80142,0.0688 l -0.0756,0.25237 -5.19543,-1.11629 0.0999,0.44046 -4.42221,-0.1963 -0.0476,1.66489 c -0.11282,-0.10142 -0.23133,-0.19939 -0.35544,-0.29384 -1.17569,-0.89308 -2.51422,-1.34703 -3.98011,-1.34703 -0.36447,0 -0.70482,0.0405 -1.04141,0.10366 -0.26748,0.0502 -0.53259,0.11466 -0.8059,0.18391 l -0.13722,0.0348 -0.0992,0.10114 c -0.0637,0.0649 -2.18004,0.15913 -2.39024,0.16392 l -0.36678,0.009 -0.0755,0.25237 -2.902,-0.62348 -2.29344,-0.49282 0.11203,0.49327 -2.7239,0.39004 -0.0722,0.95789 -0.56769,-1.07408 -2.23288,0.25342 -0.18153,0.36126 -0.0108,-0.95565 -4.87908,0.49773 1.62775,8.9709 4.20668,-0.24298 1.02351,-1.89341 0.96773,1.3545 3.75846,0.51146 0.48625,-2.95644 0.83588,3.68104 z"
       id="path4266-6"
       inkscape:connector-curvature="0"
       sodipodi:nodetypes="ccccccccccccccccccccccccscccccccccccsscscsccccccccsccccccccccccscccccccccccscscsscccccccccsccccccccccccccccccccccccc" /><path
       style="fill:#00ff00;fill-opacity:1;fill-rule:nonzero;stroke:none;stroke-opacity:0.6"
       d="m 203.20933,-235.73422 4.38119,-0.73177 0.7786,-2.1571 -0.0793,1.36538 0.36275,0.12396 c 0.6645,0.227 1.3193,0.43527 2.01645,0.55651 0.5446,0.10023 1.07481,0.15003 1.58867,0.15003 1.04978,0 2.01484,-0.21245 2.8316,-0.70417 l 0.0247,0.39333 5.27345,0.45597 -0.49744,-5.02569 0.87943,0.0382 1.25694,5.53537 4.38119,-0.73177 0.44777,-1.24084 -0.0145,0.0504 0.35365,0.19406 c 0.6961,0.38213 1.27342,0.65316 2.1067,0.84751 0.66364,0.15914 1.31493,0.23774 1.95365,0.23774 0.84636,0 1.64112,-0.14298 2.31507,-0.51145 0.84674,-0.45619 1.27664,-1.25859 1.27664,-2.20425 0,-0.29735 -0.0439,-0.60102 -0.15185,-0.893 0.66268,-0.50844 0.89762,-1.25508 0.89762,-1.97603 0,-2.48234 -2.80451,-3.71103 -4.73081,-3.71103 -0.52494,0 -1.0192,0.0473 -1.46204,0.16036 -0.22586,0.0551 -0.44247,0.13252 -0.65076,0.22447 -0.0548,-0.0162 -3.80142,0.0688 -3.80142,0.0688 l -0.0756,0.25237 -5.19543,-1.11629 0.0999,0.44046 -4.42221,-0.1963 -0.0476,1.66489 c -0.11282,-0.10142 -0.23133,-0.19939 -0.35544,-0.29384 -1.17569,-0.89308 -2.51422,-1.34703 -3.98011,-1.34703 -0.36447,0 -0.70482,0.0405 -1.04141,0.10366 -0.26748,0.0502 -0.53259,0.11466 -0.8059,0.18391 l -0.13722,0.0348 -0.0992,0.10114 c -0.0637,0.0649 -2.18004,0.15913 -2.39024,0.16392 l -0.36678,0.009 -0.0755,0.25237 -2.902,-0.62348 -2.29344,-0.49282 0.11203,0.49327 -2.7239,0.39004 -0.0722,0.95789 -0.56769,-1.07408 -2.23288,0.25342 -0.18153,0.36126 -0.0108,-0.95565 -4.87908,0.49773 1.62775,8.9709 4.20668,-0.24298 1.02351,-1.89341 0.96773,1.3545 3.75846,0.51146 0.48625,-2.95644 0.83588,3.68104 z"
       id="path4191-7"
       inkscape:connector-curvature="0" /><path
       d="m 201.52622,-277.42391 0.0581,0.25569 -2.86437,0.41022 -0.17319,2.29825 -1.22432,-2.31638 -1.61959,0.18383 -0.99047,1.9713 -0.0284,-2.47828 -3.7874,0.38634 1.45074,7.9952 3.48013,-0.20095 1.27413,-2.35698 1.31091,1.83496 3.05654,0.41587 0.61019,-3.71008 0.50823,-0.0153 1.00825,4.43992 3.62044,-0.60464 1.25225,-3.46914 0.50221,0.10301 -0.15511,2.66991 c 0.6393,0.21844 1.26915,0.42035 1.93985,0.5371 0.51492,0.095 1.01637,0.14244 1.50217,0.14244 1.13388,0 2.11607,-0.26404 2.89379,-0.84923 l 0.38384,-0.28888 0.0549,0.86653 4.23568,0.36637 -0.49496,-5.00001 1.84516,0.0801 1.23688,5.44644 3.62043,-0.60464 1.35277,-3.74758 0.5025,0.0974 -0.0454,1.25237 -0.40589,1.4083 c 0.67519,0.37058 1.20738,0.61859 1.97851,0.79844 0.62469,0.14998 1.23803,0.22453 1.83914,0.22453 0.79366,0 1.49844,-0.13536 2.07455,-0.45038 0.66908,-0.36052 1.01283,-0.98396 1.01283,-1.76084 0,-0.30271 -0.0546,-0.59749 -0.18309,-0.86552 l -0.0935,-0.19517 0.34061,-0.24607 c 0.4879,-0.37472 0.68177,-0.94353 0.68177,-1.56227 0,-2.03417 -2.37152,-3.20661 -4.22651,-3.20661 -0.49706,0 -0.94706,0.0449 -1.33731,0.14453 -0.1995,0.0483 -0.3909,0.11716 -0.57476,0.19849 l -0.0473,0.021 -3.5769,0.0811 -0.54976,1.83605 -0.28447,-1.6454 -4.14776,-0.89116 0.0713,0.31439 -4.57093,-0.20285 -0.068,2.37651 -0.43406,-0.48919 c -0.20257,-0.22827 -0.43464,-0.4424 -0.696,-0.64146 -1.08892,-0.82711 -2.32017,-1.24408 -3.67476,-1.24408 -0.33201,0 -0.64187,0.0376 -0.94849,0.0951 -0.25727,0.0482 -0.51215,0.11049 -0.77504,0.17705 -0.25356,0.25875 -2.73915,0.31506 -2.73915,0.31506 l -0.54976,1.83605 -0.28447,-1.64539 -2.62726,-0.56452 -1.5205,-0.32665"
       style="fill:#fab40a;fill-opacity:1;fill-rule:nonzero;stroke:none;stroke-opacity:0.6"
       id="path4195-5"
       inkscape:connector-curvature="0"
       sodipodi:nodetypes="ccccccccccccccccccccccscccccccccccccscscccssccccccccccccsccccccc" /><path
       style="fill:#ed1c24;fill-opacity:1;fill-rule:nonzero;stroke:none;stroke-opacity:0.6"
       d="m 204.06922,-285.26472 -1.72067,-7.57688 2.80236,0.602 0.29488,1.70606 0.98324,0 0.54084,-1.80644 2.21245,-0.0501 -2.40918,6.67373 -2.70392,0.45165 z m 18.81287,0 -1.72067,-7.57688 2.80236,0.602 0.29488,1.70606 0.98325,0 0.54084,-1.80644 2.2123,-0.0501 -2.40904,6.67373 -2.70392,0.45165 z m -30.02187,-0.35127 -1.22905,-6.77411 2.45811,-0.2509 0.0491,4.31542 1.96664,-3.91404 0.88495,-0.10037 2.0157,3.81364 0.29489,-3.91402 2.80221,-0.40124 -1.13061,6.8745 -2.21229,-0.30115 -1.72068,-2.40873 -1.57331,2.9105 -2.60562,0.15049 z m 38.39615,-0.13379 c -0.5573,0 -1.12526,-0.0696 -1.70442,-0.20911 -0.57353,-0.13377 -1.0352,-0.29831 -1.38478,-0.49342 l 0.28683,-0.99517 0.17198,-4.742 c 0.37153,-0.22853 0.72116,-0.38173 1.04887,-0.4597 0.32782,-0.0837 0.72372,-0.12561 1.18804,-0.12561 0.79204,0 1.59247,0.23423 2.40083,0.70254 0.80846,0.46835 1.21265,1.0928 1.21265,1.87341 0,0.48502 -0.14738,0.83892 -0.44225,1.062 -0.28963,0.22291 -0.62016,0.37629 -0.9916,0.45985 0.24026,0.26762 0.41513,0.4936 0.52443,0.67762 0.10931,0.18388 0.16393,0.40682 0.16393,0.66882 0,0.55755 -0.22958,0.95904 -0.68836,1.20444 -0.45888,0.25089 -1.05426,0.37632 -1.78615,0.37632 z m -12.11051,-0.0167 -2.90066,-0.25089 0.19673,-6.8745 4.52304,0.20078 0,2.05732 -2.31074,-0.10055 0.49162,4.96783 z m -6.8827,-0.0334 c -0.45334,0 -0.92044,-0.0446 -1.40118,-0.13379 -0.48064,-0.0836 -0.94769,-0.20353 -1.40103,-0.35962 l 0.37677,-6.48147 c 0.37153,-0.0947 0.7511,-0.14216 1.13896,-0.14216 1.22362,0 2.327,0.37357 3.31024,1.12047 0.98869,0.75265 1.48322,1.72843 1.48322,2.92721 0,1.07602 -0.32505,1.8567 -0.97504,2.34176 -0.64465,0.48503 -1.48856,0.7276 -2.53194,0.7276 z m -6.86644,-1.22115 0.98324,-2.50897 -1.47486,0.0503 0.49162,2.4587 z m 18.81287,0 0.98324,-2.50897 -1.47486,0.0503 0.49162,2.4587 z m 6.8827,-0.13365 c 0.21308,0 0.40155,-0.053 0.56546,-0.15885 0.1639,-0.10605 0.25409,-0.2092 0.27042,-0.30951 0.0218,-0.10043 0.0328,-0.17569 0.0328,-0.22583 0,-0.26198 -0.14491,-0.49632 -0.43434,-0.70268 -0.28954,-0.20072 -0.58721,-0.301 -0.89316,-0.301 l -0.17197,1.46368 c 0.082,0.0836 0.17487,0.14213 0.27861,0.17555 0.10375,0.039 0.22119,0.0586 0.35216,0.0586 z m -19.48467,-0.19256 c 0.47529,0 0.86039,-0.10026 1.15536,-0.301 0.29498,-0.19513 0.44255,-0.57142 0.44255,-1.12897 0,-0.39582 -0.15034,-0.73046 -0.45075,-1.00367 -0.30041,-0.27309 -0.68275,-0.47936 -1.14716,-0.61871 l 0,3.05235 z m 19.9927,-2.34997 c 0.1639,0 0.30596,-0.0334 0.42614,-0.10037 0.12011,-0.0612 0.18587,-0.13088 0.19673,-0.20897 0.0164,-0.0725 0.0247,-0.12833 0.0247,-0.16736 0,-0.24525 -0.15035,-0.45717 -0.45075,-0.63571 -0.29488,-0.17838 -0.58731,-0.26745 -0.87675,-0.26745 l -0.17198,1.11227 c 0.0874,0.078 0.21025,0.14224 0.36872,0.19241 0.15837,0.0501 0.31945,0.0752 0.48327,0.0752 z"
       id="path4209-3"
       inkscape:connector-curvature="0" /><path
       style="fill:#0000ff;fill-opacity:1;fill-rule:nonzero;stroke:none;stroke-opacity:0.6"
       d="m 203.59531,-252.31094 -1.00781,-4.43906 -0.50781,0.0156 -0.61094,3.70938 -3.05625,-0.41562 -1.31094,-1.83438 -1.27343,2.35625 -3.48126,0.20157 -1.45,-7.99532 3.78751,-0.3875 0.0281,2.47969 0.99063,-1.97187 1.61874,-0.18438 1.225,2.31718 0.17344,-2.29844 2.86407,-0.41093 -0.0578,-0.25469 1.52031,0.32657 2.62657,0.56405 0.28438,1.64532 0.55,-1.83594 c 0,0 2.48549,-0.0553 2.73905,-0.31406 0.2629,-0.0666 0.51774,-0.12992 0.775,-0.17812 0.30663,-0.0575 0.61643,-0.0953 0.94844,-0.0953 1.35459,0 2.58608,0.4182 3.675,1.24532 0.26136,0.19905 0.49431,0.41235 0.69687,0.64062 l 0.43282,0.48906 0.0687,-2.37656 4.57031,0.20312 -0.0703,-0.31406 4.14687,0.89062 0.28438,1.64532 0.55,-1.83594 3.57656,-0.0812 0.0484,-0.0203 c 0.18386,-0.0813 0.37394,-0.15014 0.57344,-0.19844 0.39025,-0.0996 0.84044,-0.14531 1.3375,-0.14531 1.85499,0 4.22656,1.17208 4.22656,3.20625 0,0.61874 -0.19335,1.18778 -0.68125,1.5625 l -0.34063,0.24687 0.0938,0.19531 c 0.12848,0.26804 0.1828,0.56292 0.1828,0.86564 0,0.77688 -0.34341,1.40041 -1.01249,1.76093 -0.57611,0.31502 -1.28135,0.45 -2.075,0.45 -0.60111,0 -1.21438,-0.075 -1.83907,-0.225 -0.77112,-0.17985 -1.30293,-0.42785 -1.97812,-0.79844 l 0.40625,-1.40781 0.0453,-1.25312 -0.50312,-0.0969 -1.35312,3.74688 -3.62032,0.60468 -1.23594,-5.44531 -1.84531,-0.0813 0.49375,5 -4.23438,-0.36563 -0.0562,-0.86718 -0.38282,0.28906 c -0.77772,0.58519 -1.75986,0.85 -2.89374,0.85 -0.4858,0 -0.98821,-0.0472 -1.50313,-0.14219 -0.67071,-0.11674 -1.29976,-0.31906 -1.93907,-0.5375 l 0.15469,-2.67031 -0.50156,-0.10313 -1.25313,3.46876 -3.62031,0.60468 z m 0.47344,-0.95312 2.70469,-0.45156 2.40938,-6.675 -2.21251,0.05 -0.54062,1.8078 -0.98438,0 -0.29375,-1.70624 -2.80312,-0.60312 1.72031,7.57812 z m 18.81407,0 2.70312,-0.45156 2.40937,-6.675 -2.21249,0.05 -0.54064,1.8078 -0.9828,0 -0.29532,-1.70624 -2.80312,-0.60312 1.72188,7.57812 z m -30.02188,-0.35156 2.60468,-0.15156 1.57344,-2.90938 1.72032,2.40781 2.21249,0.30157 1.13126,-6.875 -2.80313,0.40156 -0.29375,3.91406 -2.01563,-3.81406 -0.88593,0.10156 -1.96563,3.91406 -0.05,-4.31562 -2.45781,0.25 1.22969,6.775 z m 38.39531,-0.13438 c 0.73189,0 1.32705,-0.12567 1.78593,-0.37656 0.45879,-0.2454 0.68907,-0.64714 0.68907,-1.20469 0,-0.262 -0.0547,-0.48487 -0.16407,-0.66875 -0.10929,-0.18402 -0.28473,-0.40894 -0.525,-0.67656 0.37144,-0.0836 0.70256,-0.23803 0.9922,-0.46094 0.29487,-0.22308 0.44218,-0.57592 0.44218,-1.06094 0,-0.78061 -0.40404,-1.40509 -1.2125,-1.87343 -0.80836,-0.46831 -1.60952,-0.70313 -2.40156,-0.70313 -0.46432,0 -0.85968,0.0429 -1.1875,0.12656 -0.32771,0.078 -0.6769,0.23085 -1.04844,0.45938 l -0.17187,4.74219 -0.28751,0.99531 c 0.34959,0.1951 0.81085,0.35842 1.38438,0.49218 0.57916,0.13952 1.14739,0.20938 1.70469,0.20938 z m -12.11094,-0.0172 -0.49062,-4.9672 2.31093,0.1 0,-2.05624 -4.52344,-0.20156 -0.19687,6.875 2.9,0.25 z M 212.2625,-253.8 c 1.04338,0 1.88816,-0.2431 2.53281,-0.72813 0.64999,-0.48505 0.975,-1.2646 0.975,-2.34062 0,-1.19878 -0.49412,-2.17547 -1.48281,-2.92812 -0.98324,-0.74691 -2.08732,-1.12031 -3.31094,-1.12031 -0.38786,0 -0.76753,0.0475 -1.13906,0.14218 l -0.37656,6.48125 c 0.45334,0.15609 0.92092,0.27577 1.40156,0.35937 0.48074,0.0892 0.94666,0.13438 1.4,0.13438 z m -6.86563,-1.22031 -0.49218,-2.45938 1.475,-0.05 -0.98282,2.50938 z m 18.81251,0 -0.49063,-2.45938 1.47343,-0.05 -0.9828,2.50938 z m 6.8828,-0.13438 c -0.13096,0 -0.2478,-0.0204 -0.35156,-0.0594 -0.10373,-0.0334 -0.19768,-0.0914 -0.27968,-0.175 l 0.17188,-1.46407 c 0.30594,0 0.6042,0.10085 0.89374,0.30157 0.28943,0.20636 0.43438,0.44114 0.43438,0.70312 0,0.0501 -0.011,0.12458 -0.0328,0.225 -0.0163,0.10031 -0.10642,0.20333 -0.27031,0.30938 -0.16392,0.10584 -0.35256,0.15937 -0.56564,0.15937 z m -19.48436,-0.19218 0,-3.05313 c 0.4644,0.13935 0.84646,0.34566 1.14687,0.61875 0.30041,0.27321 0.45156,0.60887 0.45156,1.00469 0,0.55754 -0.14877,0.93299 -0.44375,1.12812 -0.29497,0.20074 -0.6794,0.30157 -1.15468,0.30157 z m 19.99218,-2.35 c -0.16382,0 -0.32444,-0.0249 -0.48282,-0.075 -0.15846,-0.0502 -0.28134,-0.11419 -0.36874,-0.19219 l 0.17187,-1.1125 c 0.28944,0 0.58168,0.0888 0.87656,0.26718 0.3004,0.17855 0.45157,0.39069 0.45157,0.63594 0,0.039 -0.009,0.0947 -0.025,0.16719 -0.0109,0.0781 -0.0768,0.14818 -0.19688,0.20938 -0.12018,0.067 -0.26266,0.1 -0.42656,0.1 z"
       id="path4300"
       inkscape:connector-curvature="0" /><path
       sodipodi:nodetypes="ccccccccccccccccccccccccscccccccccccsscscsccccccccscccccc"
       style="fill:#231f20;fill-opacity:1;fill-rule:nonzero;stroke:none;stroke-opacity:0.6"
       d="m 266.82301,-203.15833 -0.37035,-1.63058 -0.14738,0.89614 -4.46038,-0.60707 -0.62438,-0.87421 -0.77308,1.42997 -4.93322,0.28503 -1.8048,-9.94683 5.97076,-0.60901 0.007,0.60901 2.20544,-0.25013 0.0969,0.1836 2.36861,-0.33933 -0.16585,-0.73057 3.06637,0.65868 2.44632,0.52577 0.0471,-0.15752 0.73325,-0.0164 c 0.10358,-0.002 0.67721,-0.0269 1.23279,-0.0586 0.27646,-0.0159 0.54841,-0.0335 0.75518,-0.0512 l 0.16407,-0.0156 0.0877,-0.0895 0.27459,-0.0695 c 0.28371,-0.0719 0.55902,-0.13853 0.83662,-0.19063 0.36667,-0.0688 0.73747,-0.11245 1.13449,-0.11245 1.40269,0 2.70121,0.38822 3.85944,1.14865 l 0.0342,-1.19475 4.27349,0.18958 -0.12857,-0.56634 5.51269,1.18445 0.0471,-0.15752 c 0,0 1.30384,-0.0295 2.24794,-0.0487 0.47263,-0.01 0.94687,-0.0187 1.30647,-0.0244 l 0.4424,-0.006 0.0817,6.3e-4 c 0.2018,-0.0838 0.41054,-0.15469 0.62676,-0.20778 0.49544,-0.12648 1.03422,-0.17601 1.58703,-0.17601 1.99121,0 5.23526,1.28077 5.23526,4.21548 0,0.72937 -0.21206,1.53016 -0.82692,2.14204 0.0573,0.24537 0.0812,0.49028 0.0812,0.72699 0,1.11357 -0.51548,2.0953 -1.54035,2.64754 -0.77199,0.42213 -1.65704,0.57261 -2.5558,0.57261 -0.67711,0 -1.36607,-0.0827 -2.06971,-0.25132 -0.82792,-0.19312 -1.42112,-0.45878 -2.07283,-0.80903 l -0.33069,0.9158 -5.14159,0.85913 -1.12449,-4.95156 0.43374,4.38283 -6.31113,-0.54592 -0.005,-0.0712 c -0.7354,0.29469 -1.54023,0.42137 -2.37589,0.42137 -0.54203,0 -1.10065,-0.052 -1.67504,-0.15752 -0.72339,-0.12583 -1.4036,-0.3406 -2.09312,-0.57619 l -0.2616,-0.0895 -0.26312,0.72877 -5.14174,0.85885 z"
       id="path4305"
       inkscape:connector-curvature="0" /><path
       sodipodi:nodetypes="ccccccccccccccccccccccccscccccccccccsscscsccccccccsccccccccccccscccccccccccscscsscccccccccsccccccccccccccccccccccccc"
       inkscape:connector-curvature="0"
       id="path4307"
       d="m 266.82301,-203.15833 -0.37035,-1.63058 -0.14738,0.89614 -4.46038,-0.60707 -0.62438,-0.87421 -0.77308,1.42997 -4.93322,0.28503 -1.8048,-9.94683 5.97076,-0.60901 0.007,0.60901 2.20544,-0.25013 0.0969,0.1836 2.36861,-0.33933 -0.16585,-0.73057 3.06637,0.65868 2.44632,0.52577 0.0471,-0.15752 0.73325,-0.0164 c 0.10358,-0.002 0.67721,-0.0269 1.23279,-0.0586 0.27646,-0.0159 0.54841,-0.0335 0.75518,-0.0512 l 0.16407,-0.0156 0.0877,-0.0895 0.27459,-0.0695 c 0.28371,-0.0719 0.55902,-0.13853 0.83662,-0.19063 0.36667,-0.0688 0.73747,-0.11245 1.13449,-0.11245 1.40269,0 2.70121,0.38822 3.85944,1.14865 l 0.0342,-1.19475 4.27349,0.18958 -0.12857,-0.56634 5.51269,1.18445 0.0471,-0.15752 c 0,0 1.30384,-0.0295 2.24794,-0.0487 0.47263,-0.01 0.94687,-0.0187 1.30647,-0.0244 l 0.4424,-0.006 0.0817,6.3e-4 c 0.2018,-0.0838 0.41054,-0.15469 0.62676,-0.20778 0.49544,-0.12648 1.03422,-0.17601 1.58703,-0.17601 1.99121,0 5.23526,1.28077 5.23526,4.21548 0,0.72937 -0.21206,1.53016 -0.82692,2.14204 0.0573,0.24537 0.0812,0.49028 0.0812,0.72699 0,1.11357 -0.51548,2.0953 -1.54035,2.64754 -0.77199,0.42213 -1.65704,0.57261 -2.5558,0.57261 -0.67711,0 -1.36607,-0.0827 -2.06971,-0.25132 -0.82792,-0.19312 -1.42112,-0.45878 -2.07283,-0.80903 l -0.33069,0.9158 -5.14159,0.85913 -1.12449,-4.95156 0.43374,4.38283 -6.31113,-0.54592 -0.005,-0.0712 c -0.7354,0.29469 -1.54023,0.42137 -2.37589,0.42137 -0.54203,0 -1.10065,-0.052 -1.67504,-0.15752 -0.72339,-0.12583 -1.4036,-0.3406 -2.09312,-0.57619 l -0.2616,-0.0895 -0.26312,0.72877 -5.14174,0.85885 z m 0.38632,-0.57589 4.38119,-0.73177 0.7786,-2.1571 -0.0793,1.36538 0.36275,0.12396 c 0.6645,0.227 1.3193,0.43527 2.01645,0.55651 0.5446,0.10023 1.07481,0.15003 1.58867,0.15003 1.04978,0 2.01484,-0.21245 2.8316,-0.70417 l 0.0247,0.39333 5.27345,0.45597 -0.49744,-5.02569 0.87943,0.0382 1.25694,5.53537 4.38119,-0.73177 0.44777,-1.24084 -0.0145,0.0504 0.35365,0.19406 c 0.6961,0.38213 1.27342,0.65316 2.1067,0.84751 0.66364,0.15914 1.31493,0.23774 1.95365,0.23774 0.84636,0 1.64112,-0.14298 2.31507,-0.51145 0.84674,-0.45619 1.27664,-1.25859 1.27664,-2.20425 0,-0.29735 -0.0439,-0.60102 -0.15185,-0.893 0.66268,-0.50844 0.89762,-1.25508 0.89762,-1.97603 0,-2.48234 -2.80451,-3.71103 -4.73081,-3.71103 -0.52494,0 -1.0192,0.0473 -1.46204,0.16036 -0.22586,0.0551 -0.44247,0.13252 -0.65076,0.22447 -0.0548,-0.0162 -3.80142,0.0688 -3.80142,0.0688 l -0.0756,0.25237 -5.19543,-1.11629 0.0999,0.44046 -4.42221,-0.1963 -0.0476,1.66489 c -0.11282,-0.10142 -0.23133,-0.19939 -0.35544,-0.29384 -1.17569,-0.89308 -2.51422,-1.34703 -3.98011,-1.34703 -0.36447,0 -0.70482,0.0405 -1.04141,0.10366 -0.26748,0.0502 -0.53259,0.11466 -0.8059,0.18391 l -0.13722,0.0348 -0.0992,0.10114 c -0.0637,0.0649 -2.18004,0.15913 -2.39024,0.16392 l -0.36678,0.009 -0.0755,0.25237 -2.902,-0.62348 -2.29344,-0.49282 0.11203,0.49327 -2.7239,0.39004 -0.0722,0.95789 -0.56769,-1.07408 -2.23288,0.25342 -0.18153,0.36126 -0.0108,-0.95565 -4.87908,0.49773 1.62775,8.9709 4.20668,-0.24298 1.02351,-1.89341 0.96773,1.3545 3.75846,0.51146 0.48625,-2.95644 0.83588,3.68104 z"
       style="fill:#ff00ff;fill-opacity:1;fill-rule:nonzero;stroke:none;stroke-opacity:0.6" /><path
       inkscape:connector-curvature="0"
       id="path4309"
       d="m 267.20933,-203.73422 4.38119,-0.73177 0.7786,-2.1571 -0.0793,1.36538 0.36275,0.12396 c 0.6645,0.227 1.3193,0.43527 2.01645,0.55651 0.5446,0.10023 1.07481,0.15003 1.58867,0.15003 1.04978,0 2.01484,-0.21245 2.8316,-0.70417 l 0.0247,0.39333 5.27345,0.45597 -0.49744,-5.02569 0.87943,0.0382 1.25694,5.53537 4.38119,-0.73177 0.44777,-1.24084 -0.0145,0.0504 0.35365,0.19406 c 0.6961,0.38213 1.27342,0.65316 2.1067,0.84751 0.66364,0.15914 1.31493,0.23774 1.95365,0.23774 0.84636,0 1.64112,-0.14298 2.31507,-0.51145 0.84674,-0.45619 1.27664,-1.25859 1.27664,-2.20425 0,-0.29735 -0.0439,-0.60102 -0.15185,-0.893 0.66268,-0.50844 0.89762,-1.25508 0.89762,-1.97603 0,-2.48234 -2.80451,-3.71103 -4.73081,-3.71103 -0.52494,0 -1.0192,0.0473 -1.46204,0.16036 -0.22586,0.0551 -0.44247,0.13252 -0.65076,0.22447 -0.0548,-0.0162 -3.80142,0.0688 -3.80142,0.0688 l -0.0756,0.25237 -5.19543,-1.11629 0.0999,0.44046 -4.42221,-0.1963 -0.0476,1.66489 c -0.11282,-0.10142 -0.23133,-0.19939 -0.35544,-0.29384 -1.17569,-0.89308 -2.51422,-1.34703 -3.98011,-1.34703 -0.36447,0 -0.70482,0.0405 -1.04141,0.10366 -0.26748,0.0502 -0.53259,0.11466 -0.8059,0.18391 l -0.13722,0.0348 -0.0992,0.10114 c -0.0637,0.0649 -2.18004,0.15913 -2.39024,0.16392 l -0.36678,0.009 -0.0755,0.25237 -2.902,-0.62348 -2.29344,-0.49282 0.11203,0.49327 -2.7239,0.39004 -0.0722,0.95789 -0.56769,-1.07408 -2.23288,0.25342 -0.18153,0.36126 -0.0108,-0.95565 -4.87908,0.49773 1.62775,8.9709 4.20668,-0.24298 1.02351,-1.89341 0.96773,1.3545 3.75846,0.51146 0.48625,-2.95644 0.83588,3.68104 z"
       style="fill:#00ff00;fill-opacity:1;fill-rule:nonzero;stroke:none;stroke-opacity:0.6" /><path
       sodipodi:nodetypes="ccccccccccccccccccccccscccccccccccccscscccssccccccccccccsccccccc"
       inkscape:connector-curvature="0"
       id="path4311"
       style="fill:#fab40a;fill-opacity:1;fill-rule:nonzero;stroke:none;stroke-opacity:0.6"
       d="m 265.52622,-213.42391 0.0581,0.25569 -2.86437,0.41022 -0.17319,2.29825 -1.22432,-2.31638 -1.61959,0.18383 -0.99047,1.9713 -0.0284,-2.47828 -3.7874,0.38634 1.45074,7.9952 3.48013,-0.20095 1.27413,-2.35698 1.31091,1.83496 3.05654,0.41587 0.61019,-3.71008 0.50823,-0.0153 1.00825,4.43992 3.62044,-0.60464 1.25225,-3.46914 0.50221,0.10301 -0.15511,2.66991 c 0.6393,0.21844 1.26915,0.42035 1.93985,0.5371 0.51492,0.095 1.01637,0.14244 1.50217,0.14244 1.13388,0 2.11607,-0.26404 2.89379,-0.84923 l 0.38384,-0.28888 0.0549,0.86653 4.23568,0.36637 -0.49496,-5.00001 1.84516,0.0801 1.23688,5.44644 3.62043,-0.60464 1.35277,-3.74758 0.5025,0.0974 -0.0454,1.25237 -0.40589,1.4083 c 0.67519,0.37058 1.20738,0.61859 1.97851,0.79844 0.62469,0.14998 1.23803,0.22453 1.83914,0.22453 0.79366,0 1.49844,-0.13536 2.07455,-0.45038 0.66908,-0.36052 1.01283,-0.98396 1.01283,-1.76084 0,-0.30271 -0.0546,-0.59749 -0.18309,-0.86552 l -0.0935,-0.19517 0.34061,-0.24607 c 0.4879,-0.37472 0.68177,-0.94353 0.68177,-1.56227 0,-2.03417 -2.37152,-3.20661 -4.22651,-3.20661 -0.49706,0 -0.94706,0.0449 -1.33731,0.14453 -0.1995,0.0483 -0.3909,0.11716 -0.57476,0.19849 l -0.0473,0.021 -3.5769,0.0811 -0.54976,1.83605 -0.28447,-1.6454 -4.14776,-0.89116 0.0713,0.31439 -4.57093,-0.20285 -0.068,2.37651 -0.43406,-0.48919 c -0.20257,-0.22827 -0.43464,-0.4424 -0.696,-0.64146 -1.08892,-0.82711 -2.32017,-1.24408 -3.67476,-1.24408 -0.33201,0 -0.64187,0.0376 -0.94849,0.0951 -0.25727,0.0482 -0.51215,0.11049 -0.77504,0.17705 -0.25356,0.25875 -2.73915,0.31506 -2.73915,0.31506 l -0.54976,1.83605 -0.28447,-1.64539 -2.62726,-0.56452 -1.5205,-0.32665" /><path
       inkscape:connector-curvature="0"
       id="path4313"
       d="m 268.06922,-205.26472 -1.72067,-7.57688 2.80236,0.602 0.29488,1.70606 0.98324,0 0.54084,-1.80644 2.21245,-0.0501 -2.40918,6.67373 -2.70392,0.45165 z m 18.81287,0 -1.72067,-7.57688 2.80236,0.602 0.29488,1.70606 0.98325,0 0.54084,-1.80644 2.2123,-0.0501 -2.40904,6.67373 -2.70392,0.45165 z m -30.02187,-0.35127 -1.22905,-6.77411 2.45811,-0.2509 0.0491,4.31542 1.96664,-3.91404 0.88495,-0.10037 2.0157,3.81364 0.29489,-3.91402 2.80221,-0.40124 -1.13061,6.8745 -2.21229,-0.30115 -1.72068,-2.40873 -1.57331,2.9105 -2.60562,0.15049 z m 38.39615,-0.13379 c -0.5573,0 -1.12526,-0.0696 -1.70442,-0.20911 -0.57353,-0.13377 -1.0352,-0.29831 -1.38478,-0.49342 l 0.28683,-0.99517 0.17198,-4.742 c 0.37153,-0.22853 0.72116,-0.38173 1.04887,-0.4597 0.32782,-0.0837 0.72372,-0.12561 1.18804,-0.12561 0.79204,0 1.59247,0.23423 2.40083,0.70254 0.80846,0.46835 1.21265,1.0928 1.21265,1.87341 0,0.48502 -0.14738,0.83892 -0.44225,1.062 -0.28963,0.22291 -0.62016,0.37629 -0.9916,0.45985 0.24026,0.26762 0.41513,0.4936 0.52443,0.67762 0.10931,0.18388 0.16393,0.40682 0.16393,0.66882 0,0.55755 -0.22958,0.95904 -0.68836,1.20444 -0.45888,0.25089 -1.05426,0.37632 -1.78615,0.37632 z m -12.11051,-0.0167 -2.90066,-0.25089 0.19673,-6.8745 4.52304,0.20078 0,2.05732 -2.31074,-0.10055 0.49162,4.96783 z m -6.8827,-0.0334 c -0.45334,0 -0.92044,-0.0446 -1.40118,-0.13379 -0.48064,-0.0836 -0.94769,-0.20353 -1.40103,-0.35962 l 0.37677,-6.48147 c 0.37153,-0.0947 0.7511,-0.14216 1.13896,-0.14216 1.22362,0 2.327,0.37357 3.31024,1.12047 0.98869,0.75265 1.48322,1.72843 1.48322,2.92721 0,1.07602 -0.32505,1.8567 -0.97504,2.34176 -0.64465,0.48503 -1.48856,0.7276 -2.53194,0.7276 z m -6.86644,-1.22115 0.98324,-2.50897 -1.47486,0.0503 0.49162,2.4587 z m 18.81287,0 0.98324,-2.50897 -1.47486,0.0503 0.49162,2.4587 z m 6.8827,-0.13365 c 0.21308,0 0.40155,-0.053 0.56546,-0.15885 0.1639,-0.10605 0.25409,-0.2092 0.27042,-0.30951 0.0218,-0.10043 0.0328,-0.17569 0.0328,-0.22583 0,-0.26198 -0.14491,-0.49632 -0.43434,-0.70268 -0.28954,-0.20072 -0.58721,-0.301 -0.89316,-0.301 l -0.17197,1.46368 c 0.082,0.0836 0.17487,0.14213 0.27861,0.17555 0.10375,0.039 0.22119,0.0586 0.35216,0.0586 z m -19.48467,-0.19256 c 0.47529,0 0.86039,-0.10026 1.15536,-0.301 0.29498,-0.19513 0.44255,-0.57142 0.44255,-1.12897 0,-0.39582 -0.15034,-0.73046 -0.45075,-1.00367 -0.30041,-0.27309 -0.68275,-0.47936 -1.14716,-0.61871 l 0,3.05235 z m 19.9927,-2.34997 c 0.1639,0 0.30596,-0.0334 0.42614,-0.10037 0.12011,-0.0612 0.18587,-0.13088 0.19673,-0.20897 0.0164,-0.0725 0.0247,-0.12833 0.0247,-0.16736 0,-0.24525 -0.15035,-0.45717 -0.45075,-0.63571 -0.29488,-0.17838 -0.58731,-0.26745 -0.87675,-0.26745 l -0.17198,1.11227 c 0.0874,0.078 0.21025,0.14224 0.36872,0.19241 0.15837,0.0501 0.31945,0.0752 0.48327,0.0752 z"
       style="fill:#ed1c24;fill-opacity:1;fill-rule:nonzero;stroke:none;stroke-opacity:0.6" /><path
       inkscape:connector-curvature="0"
       id="path4315"
       d="m 267.59531,-204.31094 -1.00781,-4.43906 -0.50781,0.0156 -0.61094,3.70938 -3.05625,-0.41562 -1.31094,-1.83438 -1.27343,2.35625 -3.48126,0.20157 -1.45,-7.99532 3.78751,-0.3875 0.0281,2.47969 0.99063,-1.97187 1.61874,-0.18438 1.225,2.31718 0.17344,-2.29844 2.86407,-0.41093 -0.0578,-0.25469 1.52031,0.32657 2.62657,0.56405 0.28438,1.64532 0.55,-1.83594 c 0,0 2.48549,-0.0553 2.73905,-0.31406 0.2629,-0.0666 0.51774,-0.12992 0.775,-0.17812 0.30663,-0.0575 0.61643,-0.0953 0.94844,-0.0953 1.35459,0 2.58608,0.4182 3.675,1.24532 0.26136,0.19905 0.49431,0.41235 0.69687,0.64062 l 0.43282,0.48906 0.0687,-2.37656 4.57031,0.20312 -0.0703,-0.31406 4.14687,0.89062 0.28438,1.64532 0.55,-1.83594 3.57656,-0.0812 0.0484,-0.0203 c 0.18386,-0.0813 0.37394,-0.15014 0.57344,-0.19844 0.39025,-0.0996 0.84044,-0.14531 1.3375,-0.14531 1.85499,0 4.22656,1.17208 4.22656,3.20625 0,0.61874 -0.19335,1.18778 -0.68125,1.5625 l -0.34063,0.24687 0.0938,0.19531 c 0.12848,0.26804 0.1828,0.56292 0.1828,0.86564 0,0.77688 -0.34341,1.40041 -1.01249,1.76093 -0.57611,0.31502 -1.28135,0.45 -2.075,0.45 -0.60111,0 -1.21438,-0.075 -1.83907,-0.225 -0.77112,-0.17985 -1.30293,-0.42785 -1.97812,-0.79844 l 0.40625,-1.40781 0.0453,-1.25312 -0.50312,-0.0969 -1.35312,3.74688 -3.62032,0.60468 -1.23594,-5.44531 -1.84531,-0.0813 0.49375,5 -4.23438,-0.36563 -0.0562,-0.86718 -0.38282,0.28906 c -0.77772,0.58519 -1.75986,0.85 -2.89374,0.85 -0.4858,0 -0.98821,-0.0472 -1.50313,-0.14219 -0.67071,-0.11674 -1.29976,-0.31906 -1.93907,-0.5375 l 0.15469,-2.67031 -0.50156,-0.10313 -1.25313,3.46876 -3.62031,0.60468 z m 0.47344,-0.95312 2.70469,-0.45156 2.40938,-6.675 -2.21251,0.05 -0.54062,1.8078 -0.98438,0 -0.29375,-1.70624 -2.80312,-0.60312 1.72031,7.57812 z m 18.81407,0 2.70312,-0.45156 2.40937,-6.675 -2.21249,0.05 -0.54064,1.8078 -0.9828,0 -0.29532,-1.70624 -2.80312,-0.60312 1.72188,7.57812 z m -30.02188,-0.35156 2.60468,-0.15156 1.57344,-2.90938 1.72032,2.40781 2.21249,0.30157 1.13126,-6.875 -2.80313,0.40156 -0.29375,3.91406 -2.01563,-3.81406 -0.88593,0.10156 -1.96563,3.91406 -0.05,-4.31562 -2.45781,0.25 1.22969,6.775 z m 38.39531,-0.13438 c 0.73189,0 1.32705,-0.12567 1.78593,-0.37656 0.45879,-0.2454 0.68907,-0.64714 0.68907,-1.20469 0,-0.262 -0.0547,-0.48487 -0.16407,-0.66875 -0.10929,-0.18402 -0.28473,-0.40894 -0.525,-0.67656 0.37144,-0.0836 0.70256,-0.23803 0.9922,-0.46094 0.29487,-0.22308 0.44218,-0.57592 0.44218,-1.06094 0,-0.78061 -0.40404,-1.40509 -1.2125,-1.87343 -0.80836,-0.46831 -1.60952,-0.70313 -2.40156,-0.70313 -0.46432,0 -0.85968,0.0429 -1.1875,0.12656 -0.32771,0.078 -0.6769,0.23085 -1.04844,0.45938 l -0.17187,4.74219 -0.28751,0.99531 c 0.34959,0.1951 0.81085,0.35842 1.38438,0.49218 0.57916,0.13952 1.14739,0.20938 1.70469,0.20938 z m -12.11094,-0.0172 -0.49062,-4.9672 2.31093,0.1 0,-2.05624 -4.52344,-0.20156 -0.19687,6.875 2.9,0.25 z M 276.2625,-205.8 c 1.04338,0 1.88816,-0.2431 2.53281,-0.72813 0.64999,-0.48505 0.975,-1.2646 0.975,-2.34062 0,-1.19878 -0.49412,-2.17547 -1.48281,-2.92812 -0.98324,-0.74691 -2.08732,-1.12031 -3.31094,-1.12031 -0.38786,0 -0.76753,0.0475 -1.13906,0.14218 l -0.37656,6.48125 c 0.45334,0.15609 0.92092,0.27577 1.40156,0.35937 0.48074,0.0892 0.94666,0.13438 1.4,0.13438 z m -6.86563,-1.22031 -0.49218,-2.45938 1.475,-0.05 -0.98282,2.50938 z m 18.81251,0 -0.49063,-2.45938 1.47343,-0.05 -0.9828,2.50938 z m 6.8828,-0.13438 c -0.13096,0 -0.2478,-0.0204 -0.35156,-0.0594 -0.10373,-0.0334 -0.19768,-0.0914 -0.27968,-0.175 l 0.17188,-1.46407 c 0.30594,0 0.6042,0.10085 0.89374,0.30157 0.28943,0.20636 0.43438,0.44114 0.43438,0.70312 0,0.0501 -0.011,0.12458 -0.0328,0.225 -0.0163,0.10031 -0.10642,0.20333 -0.27031,0.30938 -0.16392,0.10584 -0.35256,0.15937 -0.56564,0.15937 z m -19.48436,-0.19218 0,-3.05313 c 0.4644,0.13935 0.84646,0.34566 1.14687,0.61875 0.30041,0.27321 0.45156,0.60887 0.45156,1.00469 0,0.55754 -0.14877,0.93299 -0.44375,1.12812 -0.29497,0.20074 -0.6794,0.30157 -1.15468,0.30157 z m 19.99218,-2.35 c -0.16382,0 -0.32444,-0.0249 -0.48282,-0.075 -0.15846,-0.0502 -0.28134,-0.11419 -0.36874,-0.19219 l 0.17187,-1.1125 c 0.28944,0 0.58168,0.0888 0.87656,0.26718 0.3004,0.17855 0.45157,0.39069 0.45157,0.63594 0,0.039 -0.009,0.0947 -0.025,0.16719 -0.0109,0.0781 -0.0768,0.14818 -0.19688,0.20938 -0.12018,0.067 -0.26266,0.1 -0.42656,0.1 z"
       style="fill:#0000ff;fill-opacity:1;fill-rule:nonzero;stroke:none;stroke-opacity:0.6" /></g></svg>